<svg version="1.0" xmlns="http://www.w3.org/2000/svg"
 width="512.000000pt" height="512.000000pt" viewBox="0 0 512.000000 512.000000"
 preserveAspectRatio="xMidYMid meet">
  <g className="bg-path" transform="translate(0.000000,512.000000) scale(0.100000,-0.100000)"
  fill="#000000" stroke="none">
  <path className="real-path" d="M320 4947 c-49 -16 -133 -102 -148 -153 -18 -60 -18 -4088 0 -4148
  16 -55 99 -138 154 -154 60 -18 4408 -18 4468 0 55 16 138 99 154 154 18 60
  18 4088 0 4148 -16 55 -99 138 -154 154 -57 17 -4421 16 -4474 -1z m4135 -332
  c25 -24 25 -24 25 -240 l0 -215 55 0 c46 0 60 -4 80 -25 l25 -24 0 -271 0
  -271 -25 -24 c-20 -21 -34 -25 -80 -25 l-55 0 0 -800 0 -800 55 0 c46 0 60 -4
  80 -25 l25 -24 0 -271 0 -271 -25 -24 c-20 -21 -34 -25 -80 -25 l-55 0 0 -215
  c0 -216 0 -216 -25 -240 l-24 -25 -1951 0 -1951 0 -24 25 -25 24 0 1871 0
  1871 25 24 24 25 1951 0 1951 0 24 -25z"/>
  <path className="real-path" d="M640 2720 l0 -1760 1840 0 1840 0 0 160 0 160 -135 0 c-131 0 -137 1
  -160 25 l-25 24 0 271 0 271 25 24 c23 24 29 25 160 25 l135 0 0 800 0 800
  -135 0 c-131 0 -137 1 -160 25 l-25 24 0 271 0 271 25 24 c23 24 29 25 160 25
  l135 0 0 160 0 160 -1840 0 -1840 0 0 -1760z m2509 419 c32 -26 77 -24 106 6
  25 24 25 27 25 198 l0 175 68 -13 c88 -17 190 -56 261 -100 108 -68 111 -49
  -27 -188 -105 -107 -122 -128 -122 -156 0 -21 9 -41 25 -56 15 -16 35 -25 56
  -25 28 0 49 17 156 122 139 138 120 135 188 27 44 -71 83 -173 100 -261 l13
  -68 -175 0 c-171 0 -174 0 -198 -25 -16 -15 -25 -36 -25 -55 0 -19 9 -40 25
  -55 24 -25 27 -25 198 -25 l175 0 -13 -67 c-17 -89 -56 -191 -100 -262 -68
  -108 -49 -111 -188 27 -107 105 -128 122 -156 122 -43 0 -81 -38 -81 -81 0
  -28 17 -49 120 -154 66 -66 120 -124 120 -127 0 -4 -33 -27 -73 -52 -85 -53
  -185 -93 -279 -111 l-68 -13 0 175 c0 171 0 174 -25 198 -32 33 -78 33 -110 0
  -25 -24 -25 -27 -25 -198 l0 -175 -69 14 c-114 21 -233 75 -346 156 -5 4 44
  62 113 131 105 107 122 128 122 156 0 43 -38 81 -81 81 -28 0 -49 -17 -156
  -122 -139 -138 -120 -135 -188 -27 -44 71 -83 173 -100 262 l-13 67 175 0
  c171 0 174 0 198 25 16 15 25 36 25 55 0 19 -9 40 -25 55 -24 25 -27 25 -198
  25 l-175 0 13 68 c17 88 56 190 100 261 68 108 49 111 188 -27 107 -105 128
  -122 156 -122 43 0 81 38 81 81 0 28 -17 49 -122 156 -69 69 -118 127 -113
  131 112 80 234 136 344 156 l66 12 5 -179 c5 -173 6 -179 29 -198z m-1523 130
  c85 -15 209 -78 272 -138 67 -65 125 -154 154 -239 32 -95 32 -249 0 -343 -23
  -66 -64 -139 -108 -191 l-22 -28 -4 243 -3 242 -31 65 c-46 95 -101 153 -192
  197 -72 36 -81 38 -172 38 -91 0 -100 -2 -172 -37 -91 -45 -147 -103 -191
  -196 l-32 -67 -3 -238 c-4 -268 -2 -264 -73 -154 -61 94 -84 174 -84 297 0
  123 23 202 84 298 128 197 347 293 577 251z m-35 -321 c55 -16 118 -73 145
  -132 l24 -51 0 -485 c0 -466 -1 -487 -21 -530 -11 -25 -32 -58 -47 -74 -38
  -40 -118 -76 -172 -76 -93 0 -202 80 -228 169 -17 55 -17 968 0 1025 15 51 99
  137 148 153 47 15 105 15 151 1z"/>
  <path className="real-path" d="M3120 2947 c-49 -16 -133 -102 -148 -153 -28 -94 -8 -169 63 -239 70
  -71 145 -91 239 -63 55 16 138 99 154 154 28 94 8 169 -63 239 -70 71 -152 91
  -245 62z"/>
  <path className="real-path" d="M480 265 c0 -46 4 -60 25 -80 l24 -25 351 0 351 0 24 25 c21 20 25
  34 25 80 l0 55 -400 0 -400 0 0 -55z"/>
  <path className="real-path" d="M3840 265 c0 -46 4 -60 25 -80 l24 -25 351 0 351 0 24 25 c21 20 25
  34 25 80 l0 55 -400 0 -400 0 0 -55z"/>
  </g>
</svg>
